<?xml version="1.0" standalone="no"?>
<!DOCTYPE svg PUBLIC "-//W3C//DTD SVG 20010904//EN"
 "http://www.w3.org/TR/2001/REC-SVG-20010904/DTD/svg10.dtd">
<svg version="1.0" xmlns="http://www.w3.org/2000/svg"
 width="700.000000pt" height="700.000000pt" viewBox="0 0 700.000000 700.000000"
 preserveAspectRatio="xMidYMid meet">
<metadata>
Created by potrace 1.14, written by Peter Selinger 2001-2017
</metadata>
<g transform="translate(0.000000,700.000000) scale(0.100000,-0.100000)"
fill="#000000" stroke="none">
<path d="M6050 6580 c-13 -11 -21 -22 -18 -25 2 -3 15 6 28 20 28 30 22 33
-10 5z"/>
<path d="M6280 6450 c-6 -11 -8 -20 -6 -20 3 0 10 9 16 20 6 11 8 20 6 20 -3
0 -10 -9 -16 -20z"/>
<path d="M5885 6420 c-16 -16 -26 -32 -24 -35 3 -3 18 9 34 25 16 16 26 32 24
35 -3 3 -18 -9 -34 -25z"/>
<path d="M5465 6340 c-10 -11 -15 -23 -12 -27 7 -6 36 25 37 40 0 11 -6 8 -25
-13z"/>
<path d="M6116 6311 c-37 -38 -44 -50 -32 -54 9 -4 16 -3 16 1 0 4 16 24 35
46 30 32 43 56 32 56 -1 0 -24 -22 -51 -49z"/>
<path d="M5727 6279 c-16 -17 -26 -34 -23 -37 7 -6 66 47 66 60 0 15 -15 7
-43 -23z"/>
<path d="M6471 6266 c-16 -19 -11 -29 8 -17 7 5 12 14 9 21 -3 9 -8 7 -17 -4z"/>
<path d="M5301 6186 l-22 -24 22 -21 23 -21 22 27 c17 22 19 31 10 45 -15 24
-28 23 -55 -6z"/>
<path d="M5906 6099 c-68 -73 -87 -99 -71 -99 13 0 165 163 160 171 -4 5 -8 9
-10 9 -1 0 -37 -37 -79 -81z"/>
<path d="M5581 6142 c-12 -18 -18 -32 -13 -32 15 0 44 38 40 51 -2 7 -14 -1
-27 -19z"/>
<path d="M6295 6115 c-54 -60 -63 -75 -45 -75 15 0 110 101 110 118 0 23 -16
12 -65 -43z"/>
<path d="M3528 6083 c-21 -5 -24 -28 -5 -40 24 -15 37 -11 37 12 0 27 -7 33
-32 28z"/>
<path d="M4551 6069 c-26 -25 -27 -53 -1 -79 25 -25 52 -26 73 -2 48 53 -20
129 -72 81z"/>
<path d="M3330 6071 c0 -23 14 -41 30 -41 19 0 30 17 23 38 -5 14 -53 17 -53
3z"/>
<path d="M3700 6055 c0 -22 4 -26 23 -23 14 2 22 10 22 23 0 13 -8 21 -22 23
-19 3 -23 -1 -23 -23z"/>
<path d="M3163 6052 c-15 -9 -6 -52 11 -52 27 1 38 17 27 39 -13 23 -19 25
-38 13z"/>
<path d="M3877 6033 c-4 -21 -1 -24 22 -21 18 2 26 9 26 23 0 31 -42 29 -48
-2z"/>
<path d="M5161 6030 c-36 -33 -38 -41 -13 -63 25 -23 26 -22 56 18 26 34 27
34 7 54 -20 20 -20 20 -50 -9z"/>
<path d="M4077 6024 c-13 -13 -7 -42 10 -48 21 -8 36 6 31 30 -3 19 -29 30
-41 18z"/>
<path d="M2975 6010 c-3 -5 -4 -19 0 -29 8 -27 47 -16 43 13 -3 23 -32 34 -43
16z"/>
<path d="M5442 5991 l-21 -29 25 -23 26 -24 19 24 c25 30 24 42 -5 63 -22 16
-24 16 -44 -11z"/>
<path d="M4771 5986 c-17 -21 -10 -56 15 -73 18 -12 24 -11 47 7 21 16 24 25
18 48 -6 21 -14 28 -38 30 -17 2 -35 -3 -42 -12z"/>
<path d="M4270 5961 c-14 -28 -13 -31 14 -31 27 0 44 29 24 42 -20 12 -26 10
-38 -11z"/>
<path d="M2788 5963 c-19 -5 -23 -20 -9 -42 9 -13 51 -7 51 8 0 17 -26 37 -42
34z"/>
<path d="M5570 5430 c-294 -297 -687 -692 -872 -877 -186 -186 -338 -341 -338
-346 0 -11 52 -67 63 -67 5 0 29 19 53 43 168 161 1613 1623 1688 1706 20 22
20 22 -13 51 -18 17 -35 30 -39 29 -4 0 -248 -243 -542 -539z"/>
<path d="M5730 5942 c0 -4 -72 -81 -161 -172 -88 -91 -245 -252 -347 -358
-103 -106 -234 -241 -291 -300 -192 -198 -803 -811 -1201 -1205 -386 -383
-425 -425 -437 -470 -8 -29 -8 -126 0 -154 20 -76 84 -144 158 -168 56 -19
148 -22 178 -5 12 6 21 8 21 5 0 -3 19 7 42 21 47 30 86 66 302 279 83 83 227
222 319 310 291 278 546 524 726 702 l175 173 -29 30 c-16 17 -35 29 -41 28
-12 -3 -250 -229 -519 -493 -67 -66 -186 -181 -265 -255 -79 -74 -225 -214
-324 -310 -401 -389 -397 -386 -447 -398 -53 -13 -77 -10 -127 16 -71 37 -104
149 -63 216 11 18 49 57 83 87 88 76 1534 1523 1758 1759 102 107 214 225 250
262 36 37 124 130 197 205 l132 138 -32 33 c-29 30 -57 42 -57 24z"/>
<path d="M2558 5889 c-44 -22 -43 -20 -23 -59 17 -34 22 -35 62 -18 15 6 31
11 36 10 11 -3 8 15 -10 53 -19 40 -16 39 -65 14z"/>
<path d="M4545 5870 c-8 -9 -15 -28 -15 -43 0 -58 94 -74 106 -18 3 14 7 30 8
36 4 15 -39 44 -63 42 -12 -1 -28 -9 -36 -17z"/>
<path d="M4976 5861 c-18 -20 -13 -46 12 -56 10 -4 22 2 33 17 17 22 17 24 -1
40 -24 22 -23 22 -44 -1z"/>
<path d="M3659 5865 c-3 -2 -74 -5 -159 -6 -203 -2 -405 -31 -555 -81 -33 -10
-67 -21 -75 -23 -33 -7 -250 -95 -301 -121 -30 -15 -57 -27 -61 -26 -3 1 -12
-5 -18 -13 -7 -8 -16 -15 -21 -15 -18 0 -314 -191 -339 -219 -3 -3 -25 -22
-50 -42 -216 -175 -444 -441 -578 -674 -19 -33 -77 -151 -122 -250 -20 -43
-94 -282 -91 -292 0 -2 -6 -20 -13 -41 -8 -21 -17 -58 -20 -83 -3 -24 -8 -55
-11 -69 -6 -27 -11 -67 -21 -170 -12 -116 -8 -348 8 -475 5 -44 11 -96 13
-115 1 -19 10 -69 19 -110 10 -41 19 -86 22 -100 16 -84 84 -276 138 -395 18
-38 43 -94 56 -122 13 -29 27 -53 32 -53 4 0 8 -4 8 -9 0 -15 84 -151 93 -151
13 0 107 74 107 84 0 5 -10 23 -23 40 -48 63 -172 315 -193 391 -1 6 -16 48
-32 95 -32 91 -67 243 -78 331 -3 30 -8 57 -11 61 -23 40 -23 598 1 636 2 4 7
31 11 59 3 29 10 66 15 83 5 16 7 30 5 30 -3 0 0 11 5 25 5 14 12 36 14 48 37
175 149 424 274 611 41 61 77 113 80 116 4 3 21 23 37 45 93 125 286 308 467
442 157 117 438 261 613 315 241 73 359 91 630 94 127 1 253 -2 280 -6 28 -5
68 -12 90 -15 32 -5 159 -32 235 -50 8 -2 47 -14 85 -27 l70 -23 22 23 c12 12
20 22 18 22 -2 0 10 14 27 32 l30 31 -71 29 c-60 23 -177 59 -241 73 -8 2 -35
8 -60 13 -25 6 -65 13 -90 17 -25 3 -56 8 -70 10 -14 2 -61 6 -105 10 -44 4
-83 9 -86 11 -3 2 -8 2 -10 -1z"/>
<path d="M6399 5844 c-13 -15 -18 -25 -10 -22 13 4 49 48 39 48 -2 0 -15 -12
-29 -26z"/>
<path d="M5302 5830 c-22 -20 -22 -20 -2 -40 25 -25 32 -25 48 0 9 15 10 26 2
40 -13 25 -21 25 -48 0z"/>
<path d="M2352 5767 c-7 -8 -7 -19 2 -34 11 -22 13 -22 34 -7 22 15 22 17 6
35 -20 22 -28 23 -42 6z"/>
<path d="M4777 5696 c-3 -7 7 -25 22 -40 26 -25 27 -25 40 -5 11 18 10 24 -8
40 -24 22 -47 25 -54 5z"/>
<path d="M2142 5659 l-41 -30 21 -37 c12 -20 22 -38 23 -39 1 -2 22 12 47 30
l46 32 -27 37 -28 37 -41 -30z"/>
<path d="M5160 5670 l-25 -19 23 -23 22 -22 22 22 c22 22 22 22 3 42 -20 19
-20 19 -45 0z"/>
<path d="M4342 5503 c-136 -139 -150 -156 -139 -174 27 -44 42 -35 189 116
180 186 174 176 133 197 l-32 16 -151 -155z"/>
<path d="M3399 5578 c-1 -29 -1 -209 0 -225 1 -9 18 -13 51 -13 l50 0 0 130 0
130 -50 0 c-45 0 -50 -2 -51 -22z"/>
<path d="M3610 5252 c0 -272 3 -349 13 -349 22 0 132 -14 147 -18 8 -2 26 -6
40 -9 14 -2 59 -14 100 -27 41 -12 77 -23 80 -24 11 -3 68 -28 104 -46 43 -21
50 -19 94 32 25 28 29 39 19 47 -16 14 -157 82 -157 76 0 -3 -9 0 -21 6 -11 6
-28 13 -37 15 -9 3 -48 14 -87 25 -70 20 -105 27 -157 29 l-28 1 0 293 0 294
-55 2 -55 2 0 -349z"/>
<path d="M3263 5581 c-24 -4 -46 -10 -50 -14 -7 -7 -11 -415 -4 -455 3 -20 7
-22 40 -15 20 4 44 7 54 7 9 0 17 5 18 11 6 74 0 469 -7 471 -5 1 -28 -2 -51
-5z"/>
<path d="M3819 5586 c-1 0 -2 -72 -4 -158 l-2 -158 59 0 c53 0 58 2 59 23 6
186 5 279 -5 283 -11 4 -105 13 -107 10z"/>
<path d="M4938 5579 c-9 -5 -12 -26 -10 -66 l4 -59 59 0 59 0 0 66 0 66 -50 0
c-27 0 -56 -3 -62 -7z"/>
<path d="M4428 5351 c-120 -119 -218 -222 -218 -227 0 -6 11 -21 24 -33 l25
-23 52 48 c29 27 63 61 76 75 13 15 89 93 169 174 79 81 144 151 144 156 0 13
-33 49 -45 49 -5 0 -108 -99 -227 -219z"/>
<path d="M6068 5530 c-15 -17 -15 -20 8 -41 13 -12 25 -21 27 -18 1 2 11 14
21 27 19 22 19 23 0 37 -24 18 -35 18 -56 -5z"/>
<path d="M3048 5527 l-48 -10 0 -235 0 -234 26 6 c15 4 39 10 55 13 l29 6 0
233 c0 129 -3 233 -7 233 -5 -1 -29 -6 -55 -12z"/>
<path d="M1907 5488 c-28 -29 -28 -31 -10 -52 37 -44 39 -44 83 -8 l33 28 -23
32 c-29 39 -47 39 -83 0z"/>
<path d="M4009 5507 c-1 -7 -2 -19 -3 -27 -2 -26 12 -37 44 -32 26 4 30 8 30
37 0 31 -2 33 -35 33 -19 0 -36 -5 -36 -11z"/>
<path d="M2860 5436 c-14 -6 -57 -25 -97 -43 l-72 -32 13 -28 c24 -50 60 -136
70 -165 5 -16 9 -16 57 4 28 12 53 27 55 33 3 6 3 63 2 127 l-3 115 -25 -11z"/>
<path d="M5849 5448 c-1 -2 -2 -36 -3 -75 -2 -80 -6 -75 64 -75 69 0 65 -5 65
77 l0 75 -62 0 c-35 0 -64 -1 -64 -2z"/>
<path d="M4728 5411 c-20 -20 -23 -46 -8 -56 11 -7 55 41 55 60 0 17 -29 15
-47 -4z"/>
<path d="M4847 5352 c-42 -43 -45 -55 -19 -83 19 -19 19 -19 53 13 61 59 63
64 40 87 -12 12 -25 21 -29 21 -4 0 -25 -17 -45 -38z"/>
<path d="M1747 5326 c-19 -15 -14 -41 11 -51 8 -3 22 1 31 10 14 14 13 17 -4
34 -17 17 -23 18 -38 7z"/>
<path d="M4589 5269 c-47 -48 -49 -52 -34 -69 16 -17 18 -16 53 23 20 23 43
48 50 55 10 11 10 17 1 28 -6 8 -13 14 -16 14 -2 0 -26 -23 -54 -51z"/>
<path d="M2492 5270 c-68 -39 -176 -111 -180 -122 -2 -4 -9 -8 -15 -8 -7 0
-26 -13 -44 -28 -17 -15 -44 -37 -60 -49 -15 -12 -45 -37 -65 -55 l-38 -33 45
-47 c43 -45 46 -47 63 -30 86 83 210 175 342 252 41 25 78 49 82 54 4 6 -4 25
-18 43 -13 17 -24 36 -24 42 0 19 -33 11 -88 -19z"/>
<path d="M4702 5197 l-41 -40 31 -32 c33 -36 27 -38 85 26 l23 25 -29 31 -28
31 -41 -41z"/>
<path d="M5717 5212 c-16 -17 -15 -20 6 -40 l24 -22 18 20 c17 19 17 21 0 40
-22 25 -28 25 -48 2z"/>
<path d="M3399 5195 c-1 -11 -1 -54 -1 -96 l0 -76 -51 -7 c-52 -7 -65 -10
-122 -21 -76 -15 -223 -61 -238 -74 -6 -6 25 -94 39 -109 1 -2 18 1 36 7 18 6
35 11 38 11 3 -1 30 8 61 19 31 10 78 22 105 26 27 3 60 9 73 12 31 8 55 10
114 12 l48 1 -3 158 -3 157 -47 0 c-41 1 -48 -2 -49 -20z"/>
<path d="M4006 5210 c-1 -3 -2 -18 -1 -35 0 -25 5 -31 29 -33 37 -5 45 5 39
46 -5 29 -9 32 -35 30 -16 -1 -31 -5 -32 -8z"/>
<path d="M3850 5171 c0 -39 0 -40 38 -39 38 0 39 1 38 39 -1 38 -2 39 -38 39
-37 0 -38 -1 -38 -39z"/>
<path d="M1590 5183 c-8 -10 -24 -28 -34 -41 l-20 -25 34 -27 34 -28 36 41 37
41 -33 28 c-37 33 -35 32 -54 11z"/>
<path d="M5914 5095 c-27 -41 -1 -74 50 -61 30 7 38 27 23 56 -17 33 -53 36
-73 5z"/>
<path d="M2625 5080 c-27 -16 -54 -35 -59 -42 -5 -9 6 -36 34 -80 l42 -67 60
33 c33 18 59 37 59 42 -2 17 -72 144 -79 143 -4 0 -29 -13 -57 -29z"/>
<path d="M2844 5076 c-35 -13 -38 -20 -24 -60 8 -23 14 -27 32 -22 13 3 26 6
31 6 4 0 7 20 7 45 0 25 -3 44 -7 44 -5 -1 -22 -6 -39 -13z"/>
<path d="M4549 5053 l-40 -38 34 -33 34 -33 40 42 41 42 -29 28 c-16 16 -32
29 -35 29 -3 0 -23 -17 -45 -37z"/>
<path d="M5548 5061 c-16 -16 -16 -18 6 -44 l23 -27 23 25 23 25 -23 20 c-27
24 -30 24 -52 1z"/>
<path d="M1426 4955 c-16 -24 -16 -26 9 -37 22 -10 27 -9 39 8 13 16 12 21 -1
37 -21 23 -28 22 -47 -8z"/>
<path d="M2450 4974 c0 -5 -13 -18 -30 -27 -16 -10 -35 -23 -42 -30 -7 -7 -41
-36 -75 -65 -35 -30 -63 -58 -63 -64 0 -5 22 -33 49 -61 l49 -51 39 34 c55 48
77 66 110 87 70 45 70 44 18 114 -55 75 -55 75 -55 63z"/>
<path d="M4402 4900 c-36 -42 -35 -57 7 -92 19 -16 21 -15 61 29 l42 45 -28
29 c-15 16 -33 29 -38 28 -6 0 -26 -18 -44 -39z"/>
<path d="M5917 4929 c-23 -14 -22 -62 3 -84 41 -37 98 21 67 68 -16 25 -43 31
-70 16z"/>
<path d="M5640 4875 c0 -59 1 -61 58 -69 39 -5 62 22 59 69 -4 47 -14 55 -68
55 l-49 0 0 -55z"/>
<path d="M5334 4846 c-39 -39 -74 -77 -78 -84 -4 -7 3 -24 16 -41 l23 -28 83
83 83 84 -18 24 c-10 14 -22 27 -28 29 -5 3 -42 -28 -81 -67z"/>
<path d="M1936 4808 l-36 -42 32 -34 c54 -55 65 -58 95 -21 15 17 33 37 40 44
11 11 6 21 -30 54 -23 23 -47 41 -54 41 -6 0 -28 -19 -47 -42z"/>
<path d="M2775 4808 c-74 -38 -160 -96 -245 -163 -101 -81 -101 -79 -52 -127
l41 -42 28 28 c58 58 199 156 306 211 20 11 37 22 37 25 0 3 -13 26 -28 52
l-28 47 -59 -31z"/>
<path d="M3437 4814 c-1 -1 -29 -4 -62 -7 -87 -8 -155 -23 -257 -57 -126 -43
-120 -36 -93 -97 13 -28 29 -54 34 -58 6 -3 42 5 80 19 108 39 236 64 334 66
20 1 37 5 38 11 1 5 1 32 1 59 0 28 0 55 -1 60 -1 8 -65 12 -74 4z"/>
<path d="M3564 4807 c-3 -8 -4 -39 -2 -68 3 -50 5 -54 28 -55 74 -5 149 -14
171 -22 42 -15 51 -8 74 55 l24 62 -67 14 c-37 8 -85 15 -107 16 -22 0 -57 4
-77 7 -28 4 -39 2 -44 -9z"/>
<path d="M4262 4749 l-40 -40 31 -33 32 -33 41 41 42 41 -27 32 c-14 17 -29
32 -33 32 -3 1 -24 -17 -46 -40z"/>
<path d="M1288 4739 c-10 -17 -18 -34 -18 -38 0 -8 45 -31 60 -31 9 0 45 60
38 64 -26 17 -58 36 -60 36 -2 0 -11 -14 -20 -31z"/>
<path d="M3898 4723 c-34 -78 -33 -88 8 -108 43 -20 38 -24 92 66 l23 38 -34
15 c-71 29 -72 29 -89 -11z"/>
<path d="M5463 4717 l-42 -43 21 -32 c11 -18 25 -32 30 -32 6 0 31 20 55 45
l45 44 -22 31 c-12 16 -27 30 -33 30 -7 -1 -31 -20 -54 -43z"/>
<path d="M2124 4656 c-74 -86 -73 -72 -7 -132 32 -29 61 -53 65 -54 4 0 17 15
29 33 12 17 33 42 46 53 l23 21 -64 57 -64 56 -28 -34z"/>
<path d="M2895 4642 c-70 -40 -195 -128 -195 -137 0 -11 104 -125 261 -288
l97 -100 48 29 c64 39 131 70 172 79 31 6 33 9 27 38 -4 18 -12 47 -18 65 -10
30 -14 32 -42 26 -16 -3 -36 -11 -44 -18 -8 -6 -17 -10 -20 -10 -3 1 -17 -2
-30 -7 -14 -6 -28 -6 -35 0 -6 5 -49 84 -96 175 -47 91 -87 166 -90 165 -3 0
-18 -8 -35 -17z"/>
<path d="M4112 4598 c-39 -36 -42 -42 -29 -56 8 -10 22 -27 32 -39 l18 -22 26
28 c67 73 64 64 28 99 l-32 31 -43 -41z"/>
<path d="M1769 4578 c-38 -60 -47 -77 -96 -170 -19 -37 -32 -72 -29 -77 4 -5
28 -17 54 -27 26 -10 52 -21 58 -26 10 -7 22 6 29 32 4 17 44 93 72 138 18 29
33 57 33 62 0 6 4 10 9 10 5 0 11 9 14 20 4 15 -7 28 -44 55 -27 19 -53 35
-58 35 -5 0 -24 -24 -42 -52z"/>
<path d="M3499 4616 c-2 -3 -28 -6 -57 -7 -28 -1 -56 -5 -62 -9 -6 -4 -6 -27
1 -68 l11 -62 52 3 c28 2 56 6 62 9 5 4 9 34 8 68 -2 59 -6 75 -15 66z"/>
<path d="M3562 4543 l2 -68 31 0 c16 -1 44 -4 62 -7 31 -6 33 -5 39 30 3 21 9
51 14 69 9 37 -2 43 -93 43 l-58 0 3 -67z"/>
<path d="M5565 4557 l-48 -43 22 -49 c12 -28 33 -77 45 -110 13 -33 27 -69 31
-80 5 -11 9 -22 10 -25 1 -3 9 -30 19 -60 10 -30 22 -71 26 -90 32 -133 42
-179 46 -210 2 -19 7 -51 10 -70 10 -65 15 -145 15 -260 1 -115 -9 -308 -15
-319 -2 -3 -7 -28 -10 -56 -22 -171 -111 -478 -174 -600 -9 -16 -17 -32 -18
-35 -9 -29 -30 -70 -36 -70 -4 0 -8 -6 -8 -12 0 -7 -23 -48 -50 -91 -28 -43
-50 -81 -50 -85 1 -7 104 -82 113 -82 5 0 49 71 70 110 4 8 13 24 20 35 19 29
110 208 113 220 1 6 14 39 29 75 15 35 28 71 30 80 2 8 9 29 16 45 6 17 13 37
15 45 2 8 14 60 28 115 14 55 28 119 31 144 3 24 7 46 9 50 2 3 7 35 11 71 3
36 9 79 12 95 9 55 10 343 1 437 -5 51 -9 107 -10 123 0 17 -4 37 -9 45 -4 9
-10 36 -13 60 -19 151 -149 536 -203 601 -7 8 -13 21 -13 27 0 21 -17 13 -65
-31z"/>
<path d="M3767 4582 c-5 -6 -9 -27 -23 -104 -3 -20 15 -32 63 -42 29 -7 35 -3
72 44 23 29 39 55 36 60 -4 7 -94 35 -105 33 -3 -1 -13 3 -22 8 -9 5 -19 6
-21 1z"/>
<path d="M5236 4480 l-98 -98 23 -31 c22 -30 23 -30 42 -13 67 58 187 182 187
192 0 12 -40 50 -50 48 -3 0 -49 -45 -104 -98z"/>
<path d="M3153 4547 c-35 -11 -63 -26 -63 -31 0 -6 11 -35 25 -65 23 -50 27
-53 53 -46 15 4 32 8 39 9 7 1 16 5 19 9 4 4 16 7 26 7 15 0 18 5 13 19 -3 11
-8 30 -10 43 -7 33 -26 78 -34 77 -3 0 -34 -10 -68 -22z"/>
<path d="M1176 4512 c-17 -34 -17 -37 0 -49 29 -21 52 -15 68 19 9 17 15 32
14 33 -2 2 -17 10 -34 18 l-31 16 -17 -37z"/>
<path d="M3981 4472 c-8 -9 -25 -28 -37 -42 l-23 -25 29 -35 29 -35 45 45 44
45 -31 33 c-35 37 -37 37 -56 14z"/>
<path d="M2290 4412 c-19 -26 -37 -49 -41 -52 -5 -5 -50 -74 -107 -165 -45
-73 -111 -236 -117 -290 -1 -5 -7 -36 -14 -67 -7 -32 -10 -61 -7 -66 2 -4 17
-7 33 -6 15 1 43 3 61 3 23 1 32 6 32 19 0 62 132 398 162 410 4 2 8 8 8 14 0
10 52 88 73 110 7 7 22 26 32 42 l19 29 -39 33 c-22 19 -44 34 -50 34 -5 -1
-26 -22 -45 -48z"/>
<path d="M1961 4418 c-7 -12 -25 -42 -39 -67 -14 -25 -29 -48 -33 -51 -5 -4
-11 -19 -15 -36 -5 -29 -4 -31 60 -57 37 -15 68 -27 71 -27 3 0 16 21 29 48
13 26 36 65 51 86 l27 40 -33 28 c-19 15 -40 28 -47 28 -7 0 -15 7 -18 15 -9
22 -37 18 -53 -7z"/>
<path d="M2542 4357 c-39 -40 -72 -79 -72 -87 0 -8 17 -26 37 -40 20 -14 43
-31 51 -39 12 -12 23 -4 83 58 38 39 69 74 69 77 0 7 -84 104 -90 104 -3 0
-38 -33 -78 -73z"/>
<path d="M3497 4404 c-3 -3 -30 -7 -59 -8 -52 -2 -53 -2 -52 -31 3 -52 9 -95
14 -96 35 -6 110 -2 111 6 8 82 1 144 -14 129z"/>
<path d="M3583 4402 c-21 -3 -23 -9 -23 -68 0 -35 3 -64 8 -65 4 -1 29 -2 55
-3 50 -3 52 -1 62 44 2 14 8 37 11 53 6 24 4 27 -22 29 -40 2 -48 3 -59 9 -5
3 -20 3 -32 1z"/>
<path d="M5319 4324 c-51 -49 -133 -127 -182 -174 -49 -47 -93 -86 -98 -88
-16 -6 -10 -35 12 -59 l22 -22 91 82 c148 135 286 273 286 288 0 8 -9 25 -19
38 l-19 24 -93 -89z"/>
<path d="M3773 4257 c-85 -90 -77 -86 -162 -75 -29 3 -38 -4 -38 -36 0 -33 2
-34 46 -41 25 -4 47 -7 48 -7 2 1 17 -3 35 -8 31 -9 34 -7 125 84 l94 94 -34
37 -33 36 -81 -84z"/>
<path d="M4997 4250 l-69 -70 25 -29 25 -30 71 70 c42 42 69 75 65 82 -11 19
-37 47 -43 47 -3 -1 -37 -32 -74 -70z"/>
<path d="M1090 4250 c-6 -11 -8 -21 -5 -21 3 -1 9 -2 14 -3 5 0 13 -4 17 -8
10 -11 24 1 24 22 0 10 -7 21 -16 24 -22 8 -22 8 -34 -14z"/>
<path d="M5973 4259 c-22 -8 -31 -33 -15 -42 4 -3 20 0 35 6 24 10 26 14 15
29 -10 12 -19 14 -35 7z"/>
<path d="M2740 4198 c-22 -23 -40 -44 -40 -48 0 -9 278 -290 288 -290 5 0 36
26 69 58 77 74 79 75 160 116 77 39 152 62 236 72 56 6 57 7 57 39 0 42 -16
46 -100 28 -36 -8 -76 -16 -89 -19 -43 -9 -189 -86 -230 -120 -21 -19 -44 -34
-49 -34 -5 0 -63 54 -129 120 -66 66 -123 120 -126 120 -3 0 -24 -19 -47 -42z"/>
<path d="M1570 4148 c-12 -40 -26 -84 -31 -98 -15 -44 -20 -75 -34 -217 l-7
-63 62 0 c67 0 66 -1 74 75 3 28 13 74 22 104 9 30 17 62 19 70 2 9 15 47 29
85 15 38 25 70 24 71 -6 5 -119 45 -127 45 -4 0 -18 -33 -31 -72z"/>
<path d="M2369 4127 c-32 -51 -89 -163 -94 -186 -3 -9 -13 -50 -24 -91 -11
-41 -18 -76 -16 -78 4 -4 75 -6 117 -3 12 1 21 15 28 44 16 62 57 159 96 223
36 59 40 74 24 74 -6 0 -29 14 -52 30 -22 17 -44 30 -47 30 -3 0 -18 -19 -32
-43z"/>
<path d="M1805 4096 c-8 -18 -16 -45 -19 -59 -2 -15 -7 -30 -9 -35 -3 -4 -8
-26 -12 -50 l-6 -42 74 0 74 0 28 75 c15 41 25 80 23 86 -3 10 -111 59 -130
59 -5 0 -15 -15 -23 -34z"/>
<path d="M4827 4081 l-28 -27 24 -22 23 -22 28 29 c24 26 26 31 14 50 -17 27
-27 26 -61 -8z"/>
<path d="M2576 4013 c-32 -43 -105 -182 -120 -225 -3 -11 0 -18 7 -19 37 -3
338 -1 340 2 1 2 12 23 23 46 l22 42 -42 38 c-107 96 -179 158 -186 161 -5 2
-25 -18 -44 -45z"/>
<path d="M3479 4046 c-2 -2 -30 -7 -61 -10 -167 -20 -353 -158 -438 -326 -22
-44 -38 -80 -35 -80 2 0 0 -11 -5 -25 -16 -42 -20 -75 -21 -165 0 -106 7 -148
37 -230 34 -88 64 -133 143 -210 118 -114 271 -175 441 -174 116 0 176 14 300
67 100 44 216 158 282 279 23 41 24 49 12 56 -26 14 -75 1 -84 -22 -4 -12 -25
-44 -46 -71 -136 -181 -370 -266 -592 -217 -313 69 -490 382 -387 687 32 98
69 156 137 221 57 52 110 85 180 110 62 21 101 27 201 28 85 1 90 2 119 31
l30 30 -34 8 c-39 9 -172 19 -179 13z"/>
<path d="M6028 4016 c-29 -10 -37 -33 -15 -42 25 -9 54 9 48 31 -5 18 -10 19
-33 11z"/>
<path d="M1030 4000 c0 -11 6 -20 14 -20 8 0 21 -3 30 -6 11 -4 16 0 16 14 0
12 -9 22 -22 26 -35 9 -38 8 -38 -14z"/>
<path d="M4090 4013 c-20 -8 -34 -32 -38 -68 -2 -22 -23 -49 -80 -104 -42 -41
-153 -148 -245 -237 -93 -90 -175 -164 -183 -164 -26 0 -54 -39 -54 -74 0 -25
7 -40 26 -55 38 -30 53 -26 93 20 71 79 524 530 529 525 8 -9 61 24 72 45 15
27 4 75 -23 99 -20 19 -65 25 -97 13z"/>
<path d="M5393 3970 c1 -40 1 -40 39 -40 38 0 38 0 38 40 0 40 0 40 -39 40
-39 0 -39 0 -38 -40z"/>
<path d="M4840 3902 c-47 -48 -102 -97 -122 -107 -60 -33 -475 -434 -475 -459
0 -10 16 -14 54 -15 l53 0 98 92 c91 86 269 257 461 444 l84 83 -27 25 c-15
14 -30 25 -34 25 -4 -1 -45 -40 -92 -88z"/>
<path d="M4691 3929 c-31 -29 -32 -32 -16 -47 15 -16 19 -14 51 22 25 29 31
42 22 48 -18 11 -19 11 -57 -23z"/>
<path d="M5037 3846 c-1 -4 -1 -23 1 -42 4 -31 7 -34 37 -34 28 0 33 4 37 28
7 48 0 59 -37 58 -19 -1 -36 -5 -38 -10z"/>
<path d="M5281 3842 c-4 -7 -5 -26 -3 -43 4 -26 8 -29 38 -29 33 0 34 1 34 44
0 42 -1 44 -31 42 -17 0 -34 -7 -38 -14z"/>
<path d="M5509 3841 c-5 -68 -6 -66 36 -68 l41 -3 -1 42 c0 40 -1 41 -37 43
-29 2 -38 -1 -39 -14z"/>
<path d="M2877 3783 c-14 -32 -30 -70 -36 -85 -10 -28 -12 -28 -96 -28 l-85 0
0 -59 0 -58 65 2 c41 1 65 -2 66 -9 1 -12 1 -14 -5 -49 -3 -12 -5 -28 -5 -34
-1 -9 -21 -13 -67 -13 l-67 0 8 -57 c12 -93 12 -95 31 -158 10 -33 18 -62 19
-65 0 -3 16 -34 34 -70 54 -105 162 -235 241 -290 19 -13 37 -27 40 -31 18
-24 239 -122 303 -135 92 -18 155 -24 171 -18 6 2 12 33 13 68 2 72 9 66 -87
81 -220 36 -403 165 -491 346 -32 65 -42 94 -65 199 -12 55 -1 268 16 299 4 9
8 20 8 24 0 15 46 122 55 128 14 10 4 40 -19 56 -20 13 -22 11 -47 -44z"/>
<path d="M990 3706 c0 -20 4 -23 30 -21 37 3 42 7 34 29 -4 10 -17 16 -35 16
-24 0 -29 -4 -29 -24z"/>
<path d="M6040 3718 c0 -7 4 -18 8 -23 6 -10 15 -11 49 -7 6 1 11 11 10 22 -1
16 -8 20 -34 20 -20 0 -33 -5 -33 -12z"/>
<path d="M1482 3618 l3 -53 65 -3 65 -3 -1 53 -1 53 -67 3 -67 3 3 -53z"/>
<path d="M1730 3612 l0 -57 288 0 c158 0 292 3 297 7 9 5 12 66 6 101 0 4
-134 7 -296 7 l-295 0 0 -58z"/>
<path d="M2409 3668 c-5 -24 -3 -108 3 -109 4 0 34 -1 66 -1 l57 -1 0 54 0 54
-62 3 c-35 2 -63 2 -64 0z"/>
<path d="M4791 3628 c-69 -60 -67 -69 22 -67 l74 1 2 54 c1 51 0 54 -23 54
-15 0 -45 -17 -75 -42z"/>
<path d="M5005 3658 c-2 -7 -3 -33 -2 -58 l2 -45 183 0 c120 -1 182 3 183 10
1 5 1 30 2 55 l0 45 -182 3 c-140 2 -182 0 -186 -10z"/>
<path d="M5490 3612 l0 -58 68 1 67 0 2 58 2 57 -69 0 -70 0 0 -58z"/>
<path d="M4142 3482 c-25 -22 -32 -37 -32 -65 0 -20 -4 -47 -10 -61 -9 -25 -9
-26 34 -26 33 0 45 4 48 18 9 34 9 162 0 162 -4 0 -23 -13 -40 -28z"/>
<path d="M6061 3472 c-6 -2 -11 -14 -11 -26 0 -18 6 -23 30 -23 26 0 30 4 30
27 0 25 -17 33 -49 22z"/>
<path d="M983 3449 c-2 -17 3 -20 30 -17 21 2 33 9 35 21 3 13 -4 17 -30 17
-27 0 -34 -4 -35 -21z"/>
<path d="M1480 3435 c-4 -11 -6 -23 -4 -26 2 -3 6 -32 9 -65 8 -84 23 -192 31
-219 2 -5 6 -23 9 -39 3 -16 8 -33 10 -36 3 -4 34 0 71 8 57 14 65 19 61 37
-21 88 -37 186 -43 263 -6 74 -10 92 -23 93 -104 5 -114 4 -121 -16z"/>
<path d="M1762 3452 l-34 -3 6 -92 c3 -51 7 -101 10 -112 2 -11 9 -48 16 -82
12 -58 31 -85 45 -62 4 5 10 7 15 4 5 -3 24 1 42 8 18 8 36 15 41 15 11 3 10
17 -8 102 -9 38 -15 89 -20 150 -2 30 -4 58 -4 61 -1 9 -66 15 -109 11z"/>
<path d="M2233 3450 c-16 -4 -20 -12 -17 -35 4 -42 15 -113 20 -138 3 -12 7
-33 10 -47 3 -14 10 -43 16 -65 7 -22 12 -42 13 -45 6 -28 69 -175 80 -188 3
-3 94 44 103 53 2 2 -4 21 -13 42 -38 85 -46 109 -70 215 -15 66 -28 156 -27
191 1 11 -7 17 -21 18 -12 0 -34 1 -48 3 -14 1 -35 -1 -46 -4z"/>
<path d="M2428 3452 c-25 -3 -26 -5 -22 -50 3 -26 10 -62 16 -81 11 -35 8 -35
88 -16 8 2 20 4 26 4 8 1 11 25 10 71 -1 62 -3 70 -21 71 -11 0 -31 1 -45 2
-14 1 -37 1 -52 -1z"/>
<path d="M4590 3448 c-31 -11 -120 -108 -114 -123 6 -15 26 -21 99 -31 27 -3
60 -10 72 -15 17 -6 23 -5 24 6 1 15 4 28 9 43 1 4 2 10 2 13 -1 4 2 30 7 58
7 43 6 51 -8 52 -9 0 -28 2 -43 3 -15 1 -37 -2 -48 -6z"/>
<path d="M4760 3450 c-4 -3 -10 -34 -13 -70 -5 -52 -30 -164 -51 -225 -1 -5
-6 -23 -11 -40 -4 -16 -15 -38 -23 -47 -8 -10 -12 -18 -8 -18 4 0 -5 -20 -19
-44 l-25 -43 61 -37 c34 -20 62 -35 63 -34 1 2 11 21 23 43 57 108 140 418
131 492 -3 24 -7 25 -61 27 -33 0 -62 -1 -67 -4z"/>
<path d="M5058 3452 c-58 -3 -58 -3 -59 -35 -1 -18 -1 -35 -1 -38 1 -5 -26
-139 -43 -215 -24 -107 -99 -280 -168 -390 -41 -64 -108 -157 -121 -166 -6 -4
-5 -12 2 -21 9 -11 7 -13 -10 -13 -35 2 -31 -20 13 -64 38 -37 43 -40 57 -26
14 14 14 18 -4 38 l-19 23 23 -19 22 -19 38 43 c20 24 42 51 47 61 6 9 29 45
53 80 74 110 192 385 192 448 0 9 3 21 7 24 3 4 7 19 8 34 2 16 6 52 10 80 l8
53 255 2 256 3 -3 55 c-1 30 -4 57 -7 59 -4 5 -476 7 -556 3z"/>
<path d="M1985 3378 c4 -39 8 -75 11 -80 3 -4 7 -20 9 -35 11 -76 26 -123 39
-123 12 0 106 30 106 33 0 1 -7 27 -15 57 -8 30 -18 92 -21 138 l-7 82 -64 0
-63 0 5 -72z"/>
<path d="M2510 3223 c-30 -8 -56 -16 -58 -18 -6 -5 39 -130 54 -150 13 -17 16
-17 69 11 51 27 67 49 48 68 -5 4 -15 28 -24 54 -8 25 -20 47 -25 48 -5 1 -34
-5 -64 -13z"/>
<path d="M4210 3228 c0 -5 0 -11 -1 -15 -2 -32 -101 -191 -139 -226 -101 -93
-159 -134 -220 -156 -39 -15 -63 -24 -102 -39 -14 -6 -52 -14 -84 -18 -32 -3
-65 -7 -73 -9 -13 -2 -15 -14 -13 -61 4 -91 -3 -87 119 -69 145 20 355 129
473 246 59 57 157 200 189 274 16 38 28 71 26 73 -7 8 -175 7 -175 0z"/>
<path d="M4445 3211 c-8 -17 -15 -32 -14 -33 0 -2 -4 -16 -10 -31 -6 -16 -11
-32 -11 -37 0 -4 34 -28 75 -53 l74 -45 16 24 c8 13 15 26 15 28 0 3 12 31 26
62 14 31 22 60 17 64 -9 8 -92 35 -140 45 -28 6 -34 3 -48 -24z"/>
<path d="M1018 3173 c-20 -5 -22 -12 -9 -32 13 -21 61 -6 61 19 0 20 -14 23
-52 13z"/>
<path d="M6026 3164 c-8 -21 -7 -22 29 -26 24 -2 30 1 30 17 0 26 -49 34 -59
9z"/>
<path d="M2127 3022 c-59 -19 -58 -21 13 -170 l50 -103 40 22 c23 13 45 28 50
34 8 9 -23 84 -56 136 -5 8 -9 16 -10 19 -2 10 -34 80 -37 79 -1 0 -24 -8 -50
-17z"/>
<path d="M1864 3001 c-21 -7 -45 -15 -51 -17 -9 -2 -6 -23 13 -76 28 -79 144
-319 174 -357 l17 -24 34 23 c54 38 79 64 79 83 0 9 -4 17 -8 17 -14 0 -135
250 -161 331 -13 41 -28 44 -97 20z"/>
<path d="M5141 2998 c-4 -13 -16 -47 -26 -75 -11 -29 -23 -53 -29 -53 -5 0 -6
-3 -3 -7 4 -3 2 -12 -4 -19 -9 -11 -6 -16 12 -24 13 -6 47 -23 76 -39 l52 -28
40 101 c22 56 42 107 43 114 2 9 -15 18 -47 27 -109 27 -105 27 -114 3z"/>
<path d="M2613 2978 l-51 -32 36 -53 c21 -29 45 -53 55 -53 9 0 17 4 17 9 0 4
18 20 40 35 22 14 40 31 40 37 0 20 -55 89 -70 88 -8 0 -38 -14 -67 -31z"/>
<path d="M4321 2965 l-33 -45 47 -43 c69 -61 73 -63 101 -32 14 15 32 38 41
52 18 28 21 24 -37 63 -12 8 -33 23 -45 33 -33 24 -38 22 -74 -28z"/>
<path d="M5396 2958 c-17 -57 -72 -207 -82 -223 -7 -11 -10 -25 -6 -30 12 -17
132 -76 132 -65 0 6 7 27 17 48 9 20 17 39 18 42 1 3 6 16 12 30 21 51 43 121
49 158 l6 39 -53 6 c-76 9 -89 9 -93 -5z"/>
<path d="M1628 2946 c-27 -7 -48 -10 -49 -7 0 3 -4 -3 -8 -14 -7 -18 13 -89
48 -170 5 -11 17 -38 26 -60 52 -120 139 -283 164 -308 7 -7 29 4 66 33 49 38
54 45 42 59 -42 48 -165 309 -207 439 -15 46 -14 46 -82 28z"/>
<path d="M1072 2912 c-17 -3 -22 -9 -20 -25 2 -17 9 -21 28 -19 14 2 28 7 33
11 13 13 -17 37 -41 33z"/>
<path d="M5980 2891 c0 -12 9 -20 28 -24 15 -3 28 -5 28 -4 1 1 5 12 8 25 7
20 4 22 -28 22 -29 0 -36 -4 -36 -19z"/>
<path d="M2478 2829 c-27 -17 -48 -35 -48 -40 0 -10 11 -24 100 -128 69 -81
129 -140 144 -141 10 0 40 32 64 69 15 22 14 25 -66 103 -45 45 -94 100 -109
124 -16 24 -30 44 -33 44 -3 0 -26 -14 -52 -31z"/>
<path d="M2778 2833 c-18 -16 -40 -37 -50 -48 -16 -19 -14 -22 28 -62 24 -24
47 -43 51 -43 4 0 29 21 55 47 l48 47 -47 43 c-25 24 -48 43 -49 43 -1 0 -17
-12 -36 -27z"/>
<path d="M4186 2814 l-49 -45 25 -27 c14 -15 37 -40 51 -57 l26 -29 33 29 c18
17 42 40 55 52 l22 23 -53 50 c-29 27 -55 50 -57 50 -2 0 -26 -21 -53 -46z"/>
<path d="M4530 2836 c-41 -65 -201 -236 -222 -236 -17 0 -7 -24 31 -71 l39
-49 97 92 c82 78 185 195 185 211 0 8 -96 77 -107 77 -4 0 -15 -11 -23 -24z"/>
<path d="M1113 2733 c-26 -5 -28 -12 -10 -37 18 -25 68 -6 60 23 -5 21 -9 22
-50 14z"/>
<path d="M5936 2718 c-3 -14 3 -22 20 -29 36 -13 39 -12 42 15 1 19 -4 25 -28
28 -22 3 -30 0 -34 -14z"/>
<path d="M2940 2672 c-22 -26 -40 -49 -40 -52 0 -9 119 -80 134 -80 14 0 72
98 63 106 -2 3 -30 20 -61 39 l-56 33 -40 -46z"/>
<path d="M4990 2674 c-35 -50 -34 -64 7 -91 15 -10 37 -26 47 -35 30 -27 39
-23 75 37 33 54 33 56 15 70 -10 8 -23 15 -27 15 -5 0 -23 11 -41 25 -18 14
-36 25 -39 25 -3 0 -20 -20 -37 -46z"/>
<path d="M4015 2683 c-27 -14 -51 -26 -53 -28 -2 -2 3 -16 12 -33 8 -16 13
-31 11 -34 -2 -2 6 -17 19 -32 l22 -29 42 27 c23 14 46 26 52 26 5 0 10 4 10
9 0 5 6 11 14 13 10 2 -1 20 -32 54 l-47 51 -50 -24z"/>
<path d="M2302 2660 l-41 -31 32 -44 c18 -24 38 -46 45 -49 13 -6 82 53 82 69
0 10 -60 85 -69 85 -4 0 -26 -14 -49 -30z"/>
<path d="M3823 2595 c-81 -22 -81 -22 -60 -106 l12 -47 55 15 c30 8 60 16 66
17 6 1 21 9 34 17 l22 15 -28 55 -29 54 -72 -20z"/>
<path d="M3165 2567 c-25 -62 -28 -87 -10 -87 24 0 29 -1 50 -13 11 -5 34 -13
51 -17 l32 -7 16 61 c8 33 12 64 8 67 -7 6 -84 30 -114 36 -11 2 -21 -11 -33
-40z"/>
<path d="M5208 2529 c-38 -61 -45 -79 -30 -79 5 0 17 -8 28 -18 11 -10 32 -27
47 -37 34 -22 40 -17 86 66 l31 56 -55 37 c-30 20 -58 36 -62 36 -5 0 -25 -27
-45 -61z"/>
<path d="M3389 2558 c-1 -2 -3 -12 -4 -23 -2 -11 -6 -39 -10 -61 -8 -49 -5
-50 79 -49 l60 0 0 58 c1 31 -1 57 -4 58 -3 0 -14 2 -25 4 -54 10 -95 15 -96
13z"/>
<path d="M3647 2553 c-3 -2 -22 -5 -43 -7 -32 -3 -38 -7 -37 -25 0 -11 1 -39
2 -61 1 -38 2 -40 34 -40 17 0 49 3 69 6 36 6 36 7 33 48 -1 22 -4 43 -5 46
-1 3 -2 12 -1 21 1 11 -6 17 -23 17 -14 0 -27 -2 -29 -5z"/>
<path d="M5856 2524 c-9 -20 -15 -38 -13 -40 1 -2 19 -10 38 -18 l36 -15 11
36 c13 41 9 53 -17 53 -9 0 -22 5 -27 10 -7 7 -16 -2 -28 -26z"/>
<path d="M1178 2543 c-23 -6 -23 -25 0 -62 17 -28 18 -29 47 -14 17 9 31 17
33 18 2 2 -4 17 -13 34 -15 30 -28 34 -67 24z"/>
<path d="M2787 2500 l-37 -49 33 -24 c41 -31 197 -120 201 -116 2 2 16 28 31
58 26 52 26 55 9 68 -10 7 -22 13 -26 13 -5 0 -45 23 -89 50 -44 28 -82 50
-83 50 -1 0 -18 -22 -39 -50z"/>
<path d="M2152 2494 c-24 -18 -50 -38 -59 -43 -15 -8 -15 -11 0 -35 24 -36
250 -266 262 -266 6 0 16 -9 23 -20 16 -26 38 -25 53 2 6 12 20 31 31 42 41
44 40 49 -19 102 -80 70 -152 141 -203 200 l-45 52 -43 -34z"/>
<path d="M2462 2487 c-18 -18 -32 -36 -32 -40 0 -16 136 -134 232 -202 99 -69
286 -168 338 -179 14 -3 54 -14 89 -25 35 -11 67 -19 70 -19 3 1 26 -4 51 -11
37 -11 110 -21 168 -24 9 0 12 -32 12 -123 0 -134 -2 -131 65 -130 l40 1 3
163 c5 216 7 210 -65 207 -62 -2 -273 36 -335 60 -21 8 -38 13 -38 10 0 -13
-254 109 -322 156 -57 38 -73 51 -126 97 -59 51 -109 92 -114 92 -2 0 -18 -15
-36 -33z"/>
<path d="M4170 2500 c-14 -11 -32 -20 -41 -20 -9 0 -22 -7 -29 -15 -7 -8 -18
-15 -25 -15 -8 0 -11 -8 -8 -20 3 -11 8 -20 12 -20 4 0 13 -15 19 -34 21 -58
30 -59 112 -9 41 25 77 47 79 49 4 3 -42 67 -65 92 -17 16 -24 15 -54 -8z"/>
<path d="M4845 2478 c-74 -78 -72 -72 -29 -125 62 -77 57 -75 95 -31 19 23 46
55 61 72 l27 31 -52 47 c-29 26 -54 48 -57 48 -3 0 -23 -19 -45 -42z"/>
<path d="M4485 2436 l-49 -44 39 -48 c22 -27 47 -56 55 -64 8 -9 41 -50 74
-93 32 -42 61 -77 64 -77 6 0 69 47 94 70 17 16 12 23 -80 130 -53 62 -108
126 -122 141 l-25 28 -50 -43z"/>
<path d="M3925 2390 c-27 -10 -72 -21 -98 -25 -28 -4 -51 -13 -54 -22 -3 -8 0
-39 6 -69 14 -59 12 -59 99 -32 18 5 39 11 45 12 40 9 74 20 86 30 8 6 16 10
18 9 9 -8 21 -1 19 10 -6 31 -48 107 -59 106 -6 -1 -34 -9 -62 -19z"/>
<path d="M3090 2368 c-7 -18 -14 -37 -15 -43 -2 -5 -6 -18 -10 -27 -7 -16 13
-25 125 -56 47 -13 87 -13 87 0 0 7 3 34 7 60 l6 47 -67 20 c-125 37 -119 37
-133 -1z"/>
<path d="M1938 2335 c-25 -18 -49 -38 -52 -43 -3 -5 17 -33 43 -63 l49 -54 41
40 c23 21 41 43 41 47 0 7 -69 108 -73 108 -1 0 -23 -16 -49 -35z"/>
<path d="M5076 2347 c-10 -12 -35 -39 -54 -60 l-36 -37 54 -56 55 -55 38 43
c21 24 47 55 58 70 l19 26 -47 38 c-27 21 -53 42 -59 46 -5 4 -18 -3 -28 -15z"/>
<path d="M1288 2334 c-33 -17 -34 -25 -11 -62 9 -15 18 -28 19 -30 1 -1 15 5
32 15 l30 17 -19 38 c-11 21 -20 38 -22 38 -1 -1 -14 -8 -29 -16z"/>
<path d="M5760 2314 c-12 -19 -21 -36 -19 -38 20 -15 55 -36 60 -36 4 0 16 15
27 34 22 37 20 41 -25 65 -19 10 -24 7 -43 -25z"/>
<path d="M3353 2333 c4 -6 2 -34 -2 -64 -5 -30 -8 -55 -6 -57 3 -3 73 -5 136
-3 l36 1 -2 55 c-1 30 -4 57 -6 59 -10 9 -161 17 -156 9z"/>
<path d="M3605 2331 c-23 -4 -40 -11 -39 -18 1 -7 2 -34 3 -60 l1 -48 77 5 78
5 -2 30 c-1 17 -5 45 -8 63 -6 35 -16 37 -110 23z"/>
<path d="M4292 2294 c-12 -8 -22 -12 -22 -8 0 4 -8 0 -17 -8 -32 -26 -243
-115 -243 -102 0 4 -6 2 -12 -4 -22 -17 -249 -64 -321 -66 l-68 -1 3 -120 3
-119 37 1 c60 1 66 7 66 58 -1 25 3 50 8 55 5 4 34 11 64 14 169 18 435 112
590 208 24 15 24 15 -19 67 -38 46 -39 47 -69 25z"/>
<path d="M1714 2181 c-54 -38 -56 -50 -20 -87 6 -6 31 -35 56 -64 70 -83 243
-256 296 -296 27 -21 51 -40 54 -44 10 -14 227 -158 297 -198 257 -145 599
-251 933 -289 46 -5 324 -6 395 -2 31 2 230 32 288 44 15 3 37 7 50 9 68 14
293 81 355 107 12 5 32 13 45 18 65 27 184 86 200 99 9 8 17 12 17 9 0 -11
182 101 188 116 2 4 10 7 17 7 7 0 15 4 17 8 2 5 24 23 50 40 25 18 52 38 60
44 7 7 30 25 50 41 72 54 304 292 359 369 l19 26 -32 26 c-18 15 -38 30 -44
35 -17 14 -54 23 -54 13 0 -5 -8 -18 -17 -30 -10 -11 -29 -36 -43 -54 -38 -50
-227 -238 -296 -294 -139 -113 -205 -155 -389 -249 -88 -44 -180 -87 -205 -95
-25 -7 -49 -17 -55 -20 -11 -8 -61 -23 -85 -25 -8 -1 -32 -9 -52 -18 -20 -8
-39 -13 -41 -10 -3 2 -14 0 -24 -5 -10 -6 -31 -12 -48 -15 -16 -3 -80 -14
-140 -25 -128 -22 -221 -28 -434 -25 -143 2 -221 10 -361 38 -14 2 -40 7 -59
10 -19 3 -37 8 -41 10 -3 2 -18 6 -31 8 -137 25 -418 138 -556 223 -254 157
-454 332 -622 542 -18 23 -36 42 -40 42 -3 -1 -29 -18 -57 -39z"/>
<path d="M2106 2155 c-21 -19 -42 -35 -47 -35 -5 0 -9 -4 -9 -8 0 -8 66 -75
145 -147 46 -41 51 -43 62 -27 7 9 23 28 36 42 40 42 40 48 5 77 -18 15 -58
51 -89 80 -31 29 -58 53 -61 53 -3 0 -22 -16 -42 -35z"/>
<path d="M1393 2148 c-16 -17 -19 -27 -12 -40 13 -23 25 -23 49 0 18 16 18 18
1 40 l-17 23 -21 -23z"/>
<path d="M5662 2149 c-11 -18 -11 -24 4 -40 21 -23 33 -24 49 -2 15 20 9 43
-11 43 -8 0 -14 5 -14 10 0 17 -14 11 -28 -11z"/>
<path d="M2565 2088 c-21 -29 -33 -54 -28 -55 6 -2 25 -15 43 -28 39 -29 46
-25 79 41 l24 46 -29 24 c-16 13 -34 23 -41 24 -6 0 -28 -23 -48 -52z"/>
<path d="M4408 2104 l-56 -35 36 -63 36 -64 46 27 c26 14 57 33 71 42 l24 17
-34 48 c-33 47 -50 64 -61 64 -3 0 -31 -16 -62 -36z"/>
<path d="M4814 2083 c-21 -19 -47 -41 -58 -48 -18 -13 -18 -15 -2 -39 9 -14
30 -41 47 -61 l31 -35 27 19 c14 11 43 35 64 53 l38 34 -54 55 -54 56 -39 -34z"/>
<path d="M2744 1980 c-22 -41 -28 -62 -20 -67 14 -10 74 -38 101 -48 115 -42
237 -80 244 -76 4 4 11 20 14 36 3 17 8 46 12 65 l7 35 -54 19 c-29 10 -60 20
-68 23 -8 3 -22 7 -31 9 -8 2 -47 17 -87 34 -39 16 -75 30 -79 30 -4 0 -22
-27 -39 -60z"/>
<path d="M4194 1996 l-51 -21 20 -60 c12 -33 22 -62 24 -64 3 -5 97 31 111 44
11 10 9 19 -9 51 -42 75 -38 73 -95 50z"/>
<path d="M1512 1970 c-22 -19 -23 -20 -6 -46 18 -27 43 -58 103 -126 l34 -39
25 27 c23 24 24 29 11 50 -19 31 -129 154 -137 154 -4 -1 -17 -9 -30 -20z"/>
<path d="M5514 1943 c-21 -25 -54 -61 -71 -79 -18 -18 -33 -36 -33 -41 0 -5
12 -20 26 -34 l26 -24 41 46 c23 26 59 66 80 90 l38 44 -28 22 c-15 13 -31 23
-34 23 -3 0 -24 -21 -45 -47z"/>
<path d="M2380 1913 c-23 -30 -38 -58 -34 -62 46 -41 151 -108 274 -174 107
-57 105 -57 140 12 16 33 30 62 30 64 0 2 -24 14 -52 27 -73 33 -235 126 -279
160 l-36 28 -43 -55z"/>
<path d="M3939 1925 c-3 -2 -30 -7 -59 -10 -30 -3 -58 -9 -62 -13 -8 -8 -12
-59 -9 -123 l1 -37 43 9 c23 4 59 10 79 14 l38 6 -4 72 c-2 40 -5 75 -5 80 -1
8 -15 10 -22 2z"/>
<path d="M4600 1915 c-7 -8 -19 -15 -26 -15 -8 0 -14 -4 -14 -8 0 -5 -18 -16
-40 -26 -22 -10 -40 -22 -40 -27 0 -5 14 -34 31 -64 l31 -55 41 23 c23 12 58
33 78 47 l36 24 -40 58 c-22 32 -41 58 -42 58 -1 0 -8 -7 -15 -15z"/>
<path d="M3190 1840 c-7 -39 -9 -74 -6 -78 9 -8 51 -15 96 -16 l35 -1 0 72 c1
79 4 75 -78 88 l-35 6 -12 -71z"/>
<path d="M3628 1849 c-7 -4 -13 -29 -13 -54 -2 -52 13 -65 66 -57 28 4 29 6
29 61 l0 56 -35 1 c-19 0 -40 -3 -47 -7z"/>
<path d="M4336 1782 c-3 -5 -37 -21 -76 -36 -38 -15 -67 -32 -64 -37 6 -10 11
-37 18 -90 3 -19 5 -35 5 -36 3 -5 85 23 139 48 35 16 67 29 72 29 4 0 -5 25
-22 55 -29 53 -61 84 -72 67z"/>
<path d="M2853 1652 c-18 -41 -26 -69 -19 -70 6 0 43 -10 81 -22 39 -12 81
-23 95 -26 14 -3 42 -9 63 -15 21 -6 50 -12 65 -14 15 -1 50 -7 77 -11 80 -13
79 -13 82 31 1 22 5 55 7 73 4 27 2 32 -17 33 -27 2 -34 3 -72 11 -16 4 -50
10 -75 14 -24 3 -48 8 -53 11 -4 3 -18 6 -30 8 -12 1 -53 12 -91 24 -37 11
-71 21 -76 21 -4 0 -21 -31 -37 -68z"/>
<path d="M1773 1685 l-28 -24 32 -32 32 -33 19 25 c11 13 21 27 23 31 2 3 -8
18 -23 32 l-28 25 -27 -24z"/>
<path d="M5256 1685 c-33 -30 -32 -35 2 -68 l28 -27 34 35 33 35 -27 25 c-33
31 -37 31 -70 0z"/>
<path d="M3900 1648 c-92 -15 -86 -9 -86 -92 0 -41 3 -73 6 -71 3 2 34 6 70 9
102 10 101 9 96 74 -3 31 -5 65 -5 74 -1 18 -9 18 -81 6z"/>
<path d="M3399 1590 c-10 -124 -15 -120 159 -118 l147 3 5 30 c3 16 4 46 2 65
l-4 35 -154 1 c-132 0 -154 -2 -155 -16z"/>
<path d="M1956 1534 c-4 -10 1 -25 10 -35 16 -18 17 -17 35 4 17 20 17 23 2
35 -23 17 -40 15 -47 -4z"/>
<path d="M5081 1526 c-9 -11 -8 -18 4 -30 20 -19 27 -20 43 -4 9 9 8 16 -5 30
-19 22 -27 22 -42 4z"/>
<path d="M2146 1401 c-16 -18 -16 -20 11 -40 l27 -22 17 23 c17 22 17 24 -1
40 -24 23 -33 23 -54 -1z"/>
<path d="M4897 1406 c-18 -14 -18 -16 -1 -40 16 -26 17 -26 38 -9 11 10 22 19
24 19 7 4 -23 44 -33 44 -5 0 -18 -7 -28 -14z"/>
<path d="M2357 1293 c-4 -3 -7 -15 -7 -25 0 -23 38 -25 47 -2 8 21 -24 43 -40
27z"/>
<path d="M4702 1292 c-17 -12 -4 -42 18 -42 23 0 32 13 24 34 -7 17 -22 20
-42 8z"/>
<path d="M2561 1188 c-10 -28 -8 -34 19 -41 16 -4 24 1 32 19 13 27 12 29 -20
38 -17 6 -24 3 -31 -16z"/>
<path d="M4488 1202 c-20 -4 -24 -32 -6 -50 14 -14 48 2 48 22 0 19 -22 33
-42 28z"/>
<path d="M2771 1114 c-8 -19 -8 -24 4 -24 28 0 30 1 37 20 11 29 -27 33 -41 4z"/>
<path d="M4283 1133 c-15 -5 -17 -39 -4 -47 11 -7 41 3 41 13 0 15 -26 38 -37
34z"/>
<path d="M2970 1081 c0 -5 -3 -16 -6 -24 -3 -9 3 -16 15 -20 25 -6 41 30 20
44 -18 11 -29 11 -29 0z"/>
<path d="M4078 1074 c-8 -7 2 -44 12 -44 24 0 37 13 33 31 -5 18 -33 26 -45
13z"/>
<path d="M3147 1036 c-12 -31 27 -46 43 -16 6 11 9 20 8 21 -30 8 -47 6 -51
-5z"/>
<path d="M3889 1046 c-1 -1 -3 -11 -4 -23 -2 -16 3 -23 16 -23 21 0 31 13 24
32 -5 11 -27 20 -36 14z"/>
<path d="M3319 1022 c-4 -25 -3 -38 5 -44 15 -10 46 10 40 26 -6 15 -43 29
-45 18z"/>
<path d="M3700 1005 c0 -20 5 -25 25 -25 20 0 24 5 23 23 -1 16 -9 24 -25 25
-18 1 -23 -3 -23 -23z"/>
<path d="M3519 1018 c-1 -2 -3 -13 -4 -25 -2 -19 3 -23 26 -23 24 0 29 4 29
25 0 20 -5 25 -25 25 -14 0 -26 -1 -26 -2z"/>
</g>
</svg>
